<?xml version="1.0" standalone="no"?>
<!DOCTYPE svg PUBLIC "-//W3C//DTD SVG 20010904//EN"
 "http://www.w3.org/TR/2001/REC-SVG-20010904/DTD/svg10.dtd">
<svg version="1.0" xmlns="http://www.w3.org/2000/svg"
 width="444.000000pt" height="444.000000pt" viewBox="0 0 444.000000 444.000000"
 preserveAspectRatio="xMidYMid meet">
<metadata>
Created by potrace 1.11, written by Peter Selinger 2001-2013
</metadata>
<g transform="translate(0.000000,444.000000) scale(0.100000,-0.100000)"
fill="#000000" stroke="none">
<path d="M2088 4065 c-3 -4 -48 -10 -99 -16 -52 -5 -141 -21 -199 -35 -153
-38 -474 -176 -510 -219 -8 -9 -37 -27 -66 -40 -50 -22 -196 -138 -302 -239
-30 -28 -101 -117 -159 -198 -57 -81 -108 -150 -114 -153 -5 -4 -9 -17 -9 -30
0 -12 -12 -36 -26 -53 -29 -32 -102 -211 -139 -337 -79 -266 -102 -524 -68
-735 13 -86 17 -156 15 -277 l-3 -163 -204 -2 -203 -3 154 -217 154 -217 -150
-211 c-83 -116 -150 -215 -150 -220 0 -6 163 -10 445 -10 l445 0 0 66 c0 58 2
65 18 60 9 -3 57 -15 107 -27 57 -15 98 -31 112 -45 32 -32 254 -163 351 -207
101 -46 326 -109 488 -136 145 -25 322 -27 480 -7 140 19 181 28 339 78 196
61 246 86 500 254 53 34 103 58 145 69 36 9 73 18 83 21 15 5 17 -2 17 -60 l0
-66 450 0 c248 0 450 2 450 5 0 2 -67 99 -150 214 -82 115 -150 215 -150 221
0 7 67 107 150 224 l150 211 -205 3 -205 2 0 143 c0 92 6 165 16 207 9 38 17
139 21 245 4 154 2 199 -16 311 -101 626 -449 1113 -991 1388 -195 99 -318
139 -562 181 -134 23 -394 36 -410 20z m152 -299 c0 -29 82 -175 146 -260 37
-49 167 -190 290 -315 122 -124 257 -266 299 -316 240 -280 355 -558 355 -855
0 -102 -20 -240 -47 -327 l-16 -51 -111 -21 c-516 -97 -1041 -114 -1546 -50
-145 18 -365 54 -401 65 -19 5 -53 115 -70 224 -18 116 -6 315 24 432 51 193
156 387 312 573 37 44 168 183 291 309 284 288 398 434 445 569 13 37 29 50
29 23z m-1423 -2292 c21 -6 22 -8 8 -41 -20 -47 -19 -53 8 -53 19 0 28 9 40
41 14 35 19 40 39 34 32 -10 31 -8 14 -50 -20 -46 -20 -45 0 -45 28 0 13 -45
-16 -48 -18 -2 -29 -12 -37 -32 -10 -27 -9 -29 17 -35 22 -5 26 -10 22 -30 -4
-22 -8 -24 -41 -19 -35 5 -37 4 -53 -36 -15 -36 -20 -41 -40 -35 -31 10 -31 8
-14 50 20 46 21 42 -9 47 -21 4 -27 -1 -42 -38 -16 -38 -21 -42 -43 -37 -34 8
-34 6 -10 52 17 34 18 41 5 41 -8 0 -15 4 -15 9 0 24 14 41 35 41 16 0 26 8
33 29 9 26 8 30 -14 35 -18 5 -24 13 -24 32 0 25 2 26 36 20 34 -7 36 -6 52
33 9 23 19 41 22 41 3 0 15 -3 27 -6z m302 -64 c35 -6 74 -18 87 -26 73 -48
70 -221 -4 -287 -11 -10 -39 -21 -62 -24 -51 -7 -190 16 -197 33 -4 10 39 259
53 307 4 14 12 17 32 13 15 -3 56 -10 91 -16z m2654 -44 c40 -30 9 -50 -64
-40 -40 5 -50 4 -55 -10 -9 -24 -5 -26 72 -33 80 -7 104 -23 104 -68 0 -36
-19 -57 -73 -80 -51 -21 -99 -19 -131 6 -33 26 -33 34 4 49 26 11 33 10 49 -4
9 -9 24 -16 32 -16 20 0 61 29 54 39 -2 5 -35 11 -72 15 -38 4 -73 10 -79 14
-14 9 -34 47 -34 65 0 20 47 65 73 70 47 9 103 6 120 -7z m-1037 -52 c19 -9
41 -29 49 -44 14 -27 14 -29 -17 -39 -27 -10 -33 -8 -54 14 -32 34 -82 34
-115 -1 -20 -21 -24 -36 -24 -83 1 -38 7 -67 18 -84 32 -50 106 -48 135 3 17
29 35 36 66 24 20 -8 20 -18 0 -59 -20 -42 -67 -65 -135 -65 -109 0 -173 89
-155 215 16 106 133 166 232 119z m758 2 c31 -13 66 -65 66 -99 0 -14 -84 -37
-137 -37 -30 0 -30 -25 1 -45 27 -18 59 -9 70 20 7 20 66 21 66 0 0 -8 -13
-29 -28 -46 -23 -25 -38 -33 -79 -36 -29 -3 -59 0 -72 7 -82 43 -80 200 2 235
41 18 70 18 111 1z m-1051 -113 c4 -58 7 -135 7 -170 l0 -63 -35 0 -35 0 0
170 0 170 28 0 29 0 6 -107z m842 62 c0 -19 -5 -29 -13 -27 -7 1 -22 -3 -34
-9 -19 -10 -20 -18 -16 -99 l4 -88 -30 -5 c-17 -3 -32 -4 -34 -2 -4 4 -34 236
-31 239 2 2 16 6 32 10 21 5 27 3 27 -11 0 -15 3 -14 23 5 13 14 31 22 47 20
20 -2 25 -8 25 -33z m-1910 -1 c12 -13 19 -14 28 -5 13 13 63 15 72 2 3 -5 0
-20 -6 -34 -8 -18 -17 -23 -35 -19 -33 6 -51 -12 -58 -59 -19 -130 -14 -119
-52 -119 -19 0 -34 3 -34 8 0 4 7 54 15 112 8 58 15 111 15 118 0 17 36 15 55
-4z m1662 -9 c27 -7 32 -21 44 -119 6 -44 15 -86 20 -92 7 -9 0 -13 -26 -16
-19 -2 -39 0 -43 4 -5 5 -22 2 -38 -7 -65 -34 -134 -6 -134 53 0 37 32 65 98
87 54 17 61 25 38 44 -15 12 -59 1 -71 -18 -10 -16 -65 -14 -65 3 0 29 37 59
81 66 44 7 56 7 96 -5z m-1478 -4 c11 -7 13 -26 7 -91 -7 -89 0 -110 39 -110
36 0 52 29 59 109 4 41 8 77 10 79 2 2 17 2 33 0 l28 -3 -9 -122 c-8 -120 -9
-123 -32 -123 -12 0 -27 7 -32 16 -7 13 -13 14 -30 5 -37 -20 -91 -13 -119 15
-27 27 -27 41 -7 192 6 43 22 53 53 33z m311 -37 c0 -14 2 -14 22 0 35 25 83
20 119 -12 56 -50 51 -165 -9 -212 -29 -24 -80 -26 -108 -5 -30 23 -34 19 -34
-40 l0 -55 -36 0 -37 0 7 133 c11 197 13 207 47 207 20 0 29 -5 29 -16z m407
-9 c25 -17 31 -45 35 -157 l3 -78 -32 0 c-18 0 -33 4 -33 10 0 5 -16 2 -35 -7
-70 -33 -148 14 -131 80 7 31 43 52 104 62 45 7 65 30 41 46 -21 13 -59 11
-65 -4 -6 -17 -64 -10 -64 8 0 8 12 23 26 34 33 26 118 29 151 6z"/>
<path d="M1837 2858 c-11 -5 -30 -8 -43 -5 -20 4 -39 -9 -99 -66 -84 -79 -110
-122 -134 -217 -19 -75 -21 -234 -3 -267 7 -12 12 -37 12 -55 0 -33 48 -124
74 -140 6 -4 9 -20 8 -37 -3 -26 2 -31 38 -47 23 -10 39 -23 36 -30 -3 -7 6
-15 19 -18 14 -4 30 -16 36 -28 7 -12 27 -37 45 -56 19 -19 34 -40 34 -45 0
-6 3 -8 6 -4 3 3 36 -17 73 -46 79 -61 85 -67 94 -89 3 -10 11 -18 17 -18 5 0
10 -6 10 -12 1 -17 68 -63 104 -72 20 -5 34 -2 46 9 17 15 19 15 27 0 9 -15
12 -15 41 2 18 10 32 24 32 31 0 6 6 12 14 12 8 0 23 11 34 25 11 14 26 24 32
23 7 -2 32 22 56 52 24 30 58 69 74 87 17 18 30 37 30 43 0 5 7 10 15 10 8 0
36 29 62 65 27 35 53 62 60 60 6 -2 13 5 16 15 3 10 15 20 28 22 20 2 24 9 24
35 0 17 9 42 21 55 11 14 26 38 31 54 6 16 14 38 19 48 6 15 4 17 -6 11 -8 -5
-1 8 14 28 23 29 29 50 32 104 10 152 4 237 -19 263 -9 11 -17 24 -17 30 0 8
-58 55 -176 142 -94 70 -263 40 -380 -67 l-49 -45 -45 49 c-67 73 -115 93
-230 97 -54 2 -103 -2 -113 -8z"/>
<path d="M771 1304 c-13 -30 -14 -29 15 -38 18 -5 24 -1 33 25 14 41 15 39
-12 39 -16 0 -28 -9 -36 -26z"/>
<path d="M1055 1348 c-11 -33 -37 -200 -31 -205 3 -3 27 -9 53 -13 42 -7 50
-5 74 19 52 53 46 161 -11 187 -45 21 -80 25 -85 12z"/>
<path d="M3396 1258 c-25 -35 -19 -41 29 -35 55 6 60 9 45 36 -14 28 -55 27
-74 -1z"/>
<path d="M2973 1117 c-41 -16 -46 -21 -38 -46 14 -45 85 -10 85 41 0 21 -3 21
-47 5z"/>
<path d="M1896 1159 c-36 -29 -37 -89 -1 -117 46 -36 87 -5 87 65 0 35 -25 73
-47 73 -7 0 -24 -9 -39 -21z"/>
<path d="M2204 1079 c-45 -13 -59 -33 -39 -53 21 -20 39 -20 59 0 13 12 24 67
14 63 -2 0 -17 -5 -34 -10z"/>
</g>
</svg>
